<?xml version="1.0" standalone="no"?>
<svg xmlns:xlink="http://www.w3.org/1999/xlink" id="wave" style="transform:rotate(180deg); transition: 0.3s" viewBox="0 0 1440 490" version="1.1" xmlns="http://www.w3.org/2000/svg"><defs><linearGradient id="sw-gradient-0" x1="0" x2="0" y1="1" y2="0"><stop stop-color="rgba(243, 106, 62, 1)" offset="0%"/><stop stop-color="rgba(255, 179, 11, 1)" offset="100%"/></linearGradient></defs><path style="transform:translate(0, 0px); opacity:1" fill="url(#sw-gradient-0)" d="M0,98L48,89.8C96,82,192,65,288,73.5C384,82,480,114,576,106.2C672,98,768,49,864,57.2C960,65,1056,131,1152,147C1248,163,1344,131,1440,130.7C1536,131,1632,163,1728,220.5C1824,278,1920,359,2016,400.2C2112,441,2208,441,2304,408.3C2400,376,2496,310,2592,285.8C2688,261,2784,278,2880,277.7C2976,278,3072,261,3168,220.5C3264,180,3360,114,3456,98C3552,82,3648,114,3744,147C3840,180,3936,212,4032,236.8C4128,261,4224,278,4320,310.3C4416,343,4512,392,4608,367.5C4704,343,4800,245,4896,212.3C4992,180,5088,212,5184,220.5C5280,229,5376,212,5472,196C5568,180,5664,163,5760,196C5856,229,5952,310,6048,285.8C6144,261,6240,131,6336,122.5C6432,114,6528,229,6624,228.7C6720,229,6816,114,6864,57.2L6912,0L6912,490L6864,490C6816,490,6720,490,6624,490C6528,490,6432,490,6336,490C6240,490,6144,490,6048,490C5952,490,5856,490,5760,490C5664,490,5568,490,5472,490C5376,490,5280,490,5184,490C5088,490,4992,490,4896,490C4800,490,4704,490,4608,490C4512,490,4416,490,4320,490C4224,490,4128,490,4032,490C3936,490,3840,490,3744,490C3648,490,3552,490,3456,490C3360,490,3264,490,3168,490C3072,490,2976,490,2880,490C2784,490,2688,490,2592,490C2496,490,2400,490,2304,490C2208,490,2112,490,2016,490C1920,490,1824,490,1728,490C1632,490,1536,490,1440,490C1344,490,1248,490,1152,490C1056,490,960,490,864,490C768,490,672,490,576,490C480,490,384,490,288,490C192,490,96,490,48,490L0,490Z"/></svg>